<?xml version="1.0" encoding="utf-8"?>
<!-- Generator: Adobe Illustrator 21.0.0, SVG Export Plug-In . SVG Version: 6.00 Build 0)  -->
<svg version="1.1" id="Layer_1" xmlns="http://www.w3.org/2000/svg" xmlns:xlink="http://www.w3.org/1999/xlink" x="0px" y="0px"
	 viewBox="0 0 390 120" style="enable-background:new 0 0 390 120;" xml:space="preserve">
<style type="text/css">
	.st0{fill:#000100;}
	.st1{fill:#FFFFFF;}
	.st2{font-family:'TimesNewRomanPSMT';}
	.st3{font-size:42.0921px;}
	.st4{fill:#E3E3E3;}
	.st5{font-family:'Roboto-Regular';}
	.st6{font-size:17.51px;}
</style>
<path class="st0" d="M112.9,53.1c-7.7-20.8-29.2-35.8-54.7-35.8c-14.4,0-27.5,4.8-37.6,12.7c-0.2-0.5-0.4-1-0.5-1.4
	C18.4,18.3,39.8,5,39.8,5c-12,5.3-29.9,15.6-24.6,27.9c0.2,0.4,0.4,0.8,0.7,1.3c-1.6,1.5-3,3.2-4.4,4.9c-2-4.3-3.4-7.5-3.3-7.8
	l-3,6.6L8,44.1c-1.6,2.5-2.9,5.2-4,7.9c-1.1-2.6-2.1-4.8-2.1-4.8l-1,9.3c0,0,0.5,0.5,1.1,1.8C1.1,62,0.6,65.8,0.6,69.8
	c0,7.6,1.8,14.8,5,21.4c-1.9-5.3-3-10.9-3-16.7c0-3.1,0.3-6.2,0.9-9.2l1.4,9.8l2,12.3l2.7,4l-0.3-8.1c0-2.2-0.1-4.5-0.3-6.5
	l-0.1-1.6c-0.5-5.3-1.3-9.3-1.3-9.3s-0.4-3.3-1.3-7.3C6.2,58.1,6,57.6,5.9,57c1.1-2.9,2.5-5.7,4.2-8.3l4.7,10.7
	c2.5,6.9,8.1,16,8.1,16C47.5,109.7,74.1,115,74.1,115C55.8,110.6,35,83,30.4,76.7c-0.2-0.3-0.4-0.6-0.6-0.8
	c-0.1-0.2-0.2-0.3-0.4-0.5c-1.8-2.5-5.2-9.4-5.7-10.3c-1.3-2.7-6.3-13-10.3-21.5c1.6-2,3.4-4,5.4-5.8c13.9,13.1,56.7,26.7,56.7,26.7
	s-40-18.1-52.1-30.6c10-7.5,22.7-12,36.7-12C83.7,21.9,103.9,34.7,112.9,53.1z"/>
<text transform="matrix(1 0 0 1 9.9121 83.4365)" class="st1 st2 st3">PSALM23</text>
<text transform="matrix(1 0 0 1 198.438 76.0342)" class="st4 st5 st6">BASKETBALL ACADEMY</text>
</svg>
